<svg width="19" height="15" viewBox="0 0 19 15" fill="none" xmlns="http://www.w3.org/2000/svg">
    <path fill-rule="evenodd" clip-rule="evenodd" d="M9.92487 14.3252C10.1968 14.597 10.5655 14.7497 10.95 14.7497C11.3345 14.7497 11.7033 14.597 11.9752 14.3252L17.7752 8.52515C18.047 8.25324 18.1997 7.88449 18.1997 7.5C18.1997 7.11552 18.047 6.74677 17.7752 6.47485L11.9752 0.674855C11.7017 0.410726 11.3354 0.264573 10.9552 0.267877C10.5751 0.271181 10.2114 0.423676 9.94253 0.692518C9.67369 0.96136 9.52119 1.32504 9.51789 1.70522C9.51459 2.08541 9.66074 2.45168 9.92487 2.72515L13.2497 6.05H2.25002C1.86545 6.05 1.49664 6.20277 1.22471 6.4747C0.952785 6.74663 0.800018 7.11544 0.800018 7.5C0.800018 7.88457 0.952785 8.25338 1.22471 8.52531C1.49664 8.79724 1.86545 8.95 2.25002 8.95H13.2497L9.92487 12.2749C9.65303 12.5468 9.50033 12.9155 9.50033 13.3C9.50033 13.6845 9.65303 14.0532 9.92487 14.3252Z" fill="#282929"/>
</svg>
