<svg width="500" height="500" viewBox="0 0 500 500" fill="none" xmlns="http://www.w3.org/2000/svg">
<rect width="500" height="500" rx="250" fill="url(#paint0_linear_47_3)"/>
<path d="M141.423 163.173C144.492 157.476 148.92 152.619 154.319 149.031L244.912 86L152.088 238.931C152.088 238.931 143.978 225.275 140.814 218.365C136.873 209.677 134.885 200.236 134.99 190.702C135.095 181.168 137.291 171.772 141.423 163.173ZM104.034 268.669C105.057 283.294 109.204 297.532 116.198 310.43C123.191 323.329 132.87 334.589 144.586 343.458L244.79 413.075C244.79 413.075 182.096 323.054 129.217 233.477C123.863 224.013 120.264 213.666 118.592 202.931C117.852 198.07 117.852 193.125 118.592 188.264C117.213 190.81 114.537 196.022 114.537 196.022C109.175 206.917 105.523 218.568 103.709 230.568C102.665 243.252 102.774 256.004 104.034 268.669ZM359.512 280.79C356.267 273.881 348.238 260.224 348.238 260.224L255.577 413.075L346.17 350.084C351.568 346.496 355.997 341.64 359.066 335.943C363.198 327.343 365.393 317.947 365.499 308.414C365.604 298.88 363.616 289.438 359.674 280.75L359.512 280.79ZM396.292 230.446C395.269 215.822 391.122 201.583 384.129 188.685C377.135 175.787 367.456 164.526 355.74 155.658L255.698 86C255.698 86 318.351 176.021 371.272 265.598C376.611 275.065 380.196 285.412 381.856 296.144C382.596 301.005 382.596 305.95 381.856 310.811C383.235 308.265 385.911 303.053 385.911 303.053C391.273 292.158 394.925 280.507 396.738 268.507C397.796 255.824 397.701 243.072 396.455 230.406L396.292 230.446Z" fill="white"/>
<defs>
<linearGradient id="paint0_linear_47_3" x1="463.5" y1="663" x2="-54.8799" y2="-32.6252" gradientUnits="userSpaceOnUse">
<stop stop-color="#DE82FF"/>
<stop offset="1" stop-color="#7F6AFF"/>
</linearGradient>
</defs>
</svg>
