<svg width="25" height="28" viewBox="0 0 25 28" fill="none" xmlns="http://www.w3.org/2000/svg">
<path d="M3.19991 11.328C3.4757 11.9195 4.15827 13.0886 4.15827 13.0886L12.0492 0L4.34787 5.39592C3.88898 5.70309 3.51249 6.11886 3.25162 6.60655C2.90087 7.34228 2.71451 8.146 2.70558 8.96153C2.69665 9.77705 2.86536 10.5847 3.19991 11.328Z" fill="white"/>
<path d="M0.0731766 15.6378C0.160129 16.8898 0.512676 18.1087 1.10721 19.2129C1.70174 20.3171 2.52454 21.281 3.5205 22.0403L12.0388 28C12.0388 28 6.70928 20.2935 2.21397 12.6251C1.75886 11.8149 1.45291 10.9291 1.31077 10.0101C1.24784 9.59399 1.24784 9.1707 1.31077 8.75455C1.19356 8.97246 0.966034 9.41866 0.966034 9.41866C0.510225 10.3514 0.199799 11.3488 0.045598 12.376C-0.0431589 13.4619 -0.0339285 14.5536 0.0731766 15.6378Z" fill="white"/>
<path d="M21.8051 16.672C21.5293 16.0806 20.8468 14.9114 20.8468 14.9114L12.9558 28L20.6572 22.6076C21.1161 22.3004 21.4925 21.8846 21.7534 21.3969C22.1047 20.6607 22.2913 19.8564 22.3003 19.0402C22.3092 18.2241 22.1402 17.4158 21.8051 16.672Z" fill="white"/>
<path d="M24.9318 12.3622C24.8449 11.1102 24.4923 9.89132 23.8978 8.78714C23.3033 7.68295 22.4805 6.71897 21.4845 5.95973L12.9662 0C12.9662 0 18.2923 7.70649 22.791 15.3749C23.245 16.1853 23.5497 17.0711 23.6908 17.9899C23.7537 18.406 23.7537 18.8293 23.6908 19.2455C23.808 19.0275 24.0355 18.5813 24.0355 18.5813C24.4913 17.6486 24.8018 16.6512 24.956 15.624C25.0459 14.5382 25.0378 13.4465 24.9318 12.3622Z" fill="white"/>
<path d="M3.25162 6.60655C3.51249 6.11886 3.88898 5.70309 4.34787 5.39592L12.0492 0L4.15826 13.092C4.15826 13.092 3.46879 11.9229 3.1999 11.3314C2.86482 10.5877 2.69583 9.77942 2.70476 8.96325C2.71369 8.14709 2.90035 7.34274 3.25162 6.60655ZM0.0731766 15.6378C0.160129 16.8898 0.512676 18.1087 1.10721 19.2129C1.70174 20.3171 2.52454 21.281 3.5205 22.0403L12.0388 28C12.0388 28 6.70928 20.2935 2.21397 12.6251C1.75886 11.8149 1.45291 10.9291 1.31077 10.0101C1.24784 9.59399 1.24784 9.1707 1.31077 8.75455C1.19356 8.97246 0.966034 9.41866 0.966034 9.41866C0.510225 10.3514 0.199799 11.3488 0.045598 12.376C-0.0431589 13.4619 -0.0339285 14.5536 0.0731766 15.6378ZM21.7913 16.6755C21.5155 16.084 20.833 14.9149 20.833 14.9149L12.9558 28L20.6572 22.6076C21.1161 22.3004 21.4925 21.8846 21.7534 21.3969C22.1047 20.6607 22.2913 19.8564 22.3003 19.0402C22.3092 18.2241 22.1402 17.4158 21.8051 16.672L21.7913 16.6755ZM24.918 12.3657C24.8311 11.1137 24.4785 9.89478 23.884 8.7906C23.2895 7.68641 22.4667 6.72243 21.4707 5.96319L12.9662 0C12.9662 0 18.2923 7.70649 22.791 15.3749C23.245 16.1853 23.5497 17.0711 23.6908 17.9899C23.7537 18.406 23.7537 18.8293 23.6908 19.2455C23.808 19.0275 24.0355 18.5813 24.0355 18.5813C24.4913 17.6486 24.8018 16.6512 24.956 15.624C25.0459 14.5382 25.0378 13.4465 24.9318 12.3622L24.918 12.3657Z" fill="white"/>
</svg>
