<svg id="图层_1" data-name="图层 1" xmlns="http://www.w3.org/2000/svg" viewBox="0 0 807.87 595.28"><defs><style>.cls-1{fill:#fff;}</style></defs><title>logo1021111115_画板 1</title><path class="cls-1" d="M563.43,333.59V314h71.28v-32.8H560.16V261.38q32.79-9.63,48.59-29.64t15.8-54.31q0-38.2-29.64-61.68T514.27,92.28q-51,0-80.34,23.47t-29.34,61.68q0,65.59,63.49,84.25v19.56H396.81V314h74.54v19.85q-32.79,9.63-48.59,29.64T407,417.84q0,38.22,29.64,61.69T517.24,503q51,0,80.34-23.47t29.34-61.69Q626.92,352.25,563.43,333.59Zm6,121.56q-19.86,14.14-52.06,14.15t-52.2-14.75q-20-14.74-20-36.71,0-27.37,15.34-40c9.56-7.86,24.26-14.05,44-18.59V236.53q-31.19-5.46-46.63-19.38Q442.21,203,442.21,178.64t19.86-38.52Q481.93,126,514.12,126t52.21,14.74q20,14.75,20,36.71,0,27.39-15.34,40c-9.63,7.93-24.49,14.15-44.42,18.7v122.5q31.54,5.44,47.09,19.48t15.64,38.51Q589.3,441,569.45,455.15Z"/><path class="cls-1" d="M279.2,94.28c33.38,0,60.1,7.75,79.4,23s28.88,35.4,28.88,60.11c0,22.3-5.17,40.16-15.37,53.07s-26.23,22.69-47.58,29l-1.44.42v23.36h74.55V312H326.36v23l1.44.42c20.64,6.07,36.31,16.05,46.58,29.68s15.47,31.33,15.47,52.65c0,24.72-9.62,45-28.59,60.13s-45.71,23-79.09,23-60.09-7.75-79.39-23-28.88-35.4-28.88-60.12c0-22.3,5.16-40.15,15.36-53.07s26.23-22.69,47.59-29l1.44-.42V312H163.74V283.24H235V260.18l-1.43-.42c-20.64-6.06-36.32-16-46.59-29.67s-15.46-31.34-15.46-52.66c0-24.72,9.61-45,28.58-60.12s45.71-23,79.09-23M267.41,238.2V357.64c-19.23,4.58-33.77,10.85-43.23,18.64-10.66,8.78-16.07,22.77-16.07,41.56,0,15.25,7,28.14,20.82,38.32,13.64,10,31.6,15.14,53.39,15.14s39.69-4.89,53.22-14.52c13.73-9.78,20.7-23.29,20.7-40.14s-5.49-30.22-16.31-40C329.63,367.33,314,360.71,293.5,357V237.74c19.46-4.59,34.16-10.89,43.69-18.75,10.67-8.78,16.08-22.76,16.08-41.56,0-15.24-7-28.13-20.83-38.32-13.63-10-31.6-15.13-53.39-15.13s-39.69,4.88-53.21,14.51c-13.74,9.79-20.7,23.29-20.7,40.15s5.48,30.22,16.3,40c10.21,9.24,25.67,15.82,46,19.57M279.2,92.28q-51,0-80.34,23.47t-29.33,61.68q0,65.59,63.48,84.25v19.56H161.74V314h74.55v19.85q-32.81,9.63-48.6,29.64T171.9,417.84q0,38.22,29.63,61.69T282.17,503q51,0,80.34-23.47t29.34-61.69q0-65.59-63.49-84.25V314h71.28v-32.8H325.09V261.38q32.79-9.63,48.59-29.64t15.8-54.31q0-38.2-29.64-61.68T279.2,92.28Zm3.12,377q-32.19,0-52.2-14.75t-20-36.71q0-27.37,15.34-40c9.56-7.86,24.26-14.05,44-18.59V236.53q-31.19-5.46-46.62-19.38Q207.13,203,207.14,178.64T227,140.12Q246.86,126,279.05,126t52.21,14.74q20,14.75,20,36.71,0,27.39-15.35,40c-9.63,7.93-24.48,14.15-44.42,18.7v122.5q31.54,5.44,47.09,19.48t15.65,38.51q0,24.38-19.86,38.51T282.32,469.3Z"/></svg>