<svg id="图层_1" data-name="图层 1" xmlns="http://www.w3.org/2000/svg" viewBox="0 0 807.87 595.28"><defs><style>.cls-1{fill:#fff;}</style></defs><title>snslogo</title><path class="cls-1" d="M98.32,338.46A133.86,133.86,0,0,0,117,342.92a147.15,147.15,0,0,0,18.43,3.24,178.21,178.21,0,0,0,20.86,1.21q18.63,0,18.63-13.77,0-5.27-5.67-10.74a175,175,0,0,0-14.38-12.15q-8.72-6.68-18.63-14.78a135,135,0,0,1-18.64-18.63,97.2,97.2,0,0,1-14.38-23.7q-5.67-13.15-5.67-30.18,0-19,6.89-33.62a67.61,67.61,0,0,1,19-24.3A85.89,85.89,0,0,1,152,150.71a118.41,118.41,0,0,1,35-5.06,188.9,188.9,0,0,1,19.44,1l17.42,1.83q8.91,1.22,17.42,2.43v75.74q-3.26-.39-7.29-.81-3.26-.39-7.29-.81c-2.71-.26-5.54-.4-8.51-.4-1.62,0-3.64.07-6.08.2a38,38,0,0,0-6.88,1,14.18,14.18,0,0,0-5.67,2.84,7,7,0,0,0-2.43,5.67q0,3.24,5.47,8.1T216,253.8q7.9,6.48,17.42,15a121.27,121.27,0,0,1,17.42,19.44,114,114,0,0,1,13.37,24.71,82.92,82.92,0,0,1,5.46,30.79A97,97,0,0,1,264,377.14a71,71,0,0,1-17.62,27.14q-12,11.55-30.58,18.23t-44.15,6.68a268.9,268.9,0,0,1-28.56-1.41q-13.17-1.42-23.29-3.45a195.68,195.68,0,0,1-21.47-4.86Zm34,48.61q5.67,1.21,12.15,2,5.67.82,11.95,1.42t12.76.61a92.08,92.08,0,0,0,22.07-2.64,55.35,55.35,0,0,0,19.24-8.7,44.61,44.61,0,0,0,13.57-15.6q5.07-9.51,5.07-23.29a45.06,45.06,0,0,0-5.88-22.28,103.1,103.1,0,0,0-15-20.25,254.62,254.62,0,0,0-19.45-18.63q-10.32-8.91-19.44-18a111,111,0,0,1-15-18.23,34.33,34.33,0,0,1-5.87-18.83q0-14.58,9.32-22.48t30-7.9q3.24,0,6.68.2c2.3.14,4.52.34,6.69.61a52.07,52.07,0,0,0,6.48.4V184.94a49.15,49.15,0,0,1-6.08-.4q-2.84-.4-6.27-.61t-7.09-.2q-21.87,0-36.05,9.92t-14.18,31a41,41,0,0,0,5.87,21.26,106.94,106.94,0,0,0,15,19.45q9.12,9.52,19.44,18.43t19.45,18a100.23,100.23,0,0,1,15,18.84,38.67,38.67,0,0,1,5.88,20.25q0,19.44-13.17,29.57t-36.25,10.13a142.46,142.46,0,0,1-25.12-2q-6.08-.81-11.74-2Z"/><path class="cls-1" d="M287.89,152.13h70.89l74.53,104.1V152.13H518V422.31H446.67l-74.12-103.7v103.7H287.89Zm48.2,237.77V202.77L469.76,389.9h10.53V184.54H469.76V371.67L336.09,184.54H325.56V389.9Z"/><path class="cls-1" d="M539,338.46a134.06,134.06,0,0,0,18.63,4.46,147.81,147.81,0,0,0,18.43,3.24,178.47,178.47,0,0,0,20.86,1.21q18.63,0,18.64-13.77c0-3.51-1.9-7.09-5.67-10.74a175,175,0,0,0-14.38-12.15q-8.71-6.68-18.64-14.78a135,135,0,0,1-18.63-18.63,97.2,97.2,0,0,1-14.38-23.7q-5.67-13.15-5.67-30.18,0-19,6.89-33.62a67.47,67.47,0,0,1,19-24.3,85.84,85.84,0,0,1,28.56-14.79,118.36,118.36,0,0,1,35-5.06,188.9,188.9,0,0,1,19.44,1l17.42,1.83c5.93.81,11.75,1.62,17.42,2.43v75.74q-3.25-.39-7.29-.81-3.26-.39-7.3-.81c-2.7-.26-5.53-.4-8.5-.4q-2.43,0-6.08.2a38,38,0,0,0-6.88,1,14.12,14.12,0,0,0-5.67,2.84,7,7,0,0,0-2.44,5.67q0,3.24,5.47,8.1t13.37,11.34q7.9,6.48,17.42,15a120.74,120.74,0,0,1,17.41,19.44,113.15,113.15,0,0,1,13.37,24.71,82.72,82.72,0,0,1,5.47,30.79,97,97,0,0,1-5.67,33.41,71.11,71.11,0,0,1-17.62,27.14q-12,11.55-30.58,18.23t-44.15,6.68a268.9,268.9,0,0,1-28.56-1.41q-13.17-1.42-23.29-3.45A195.16,195.16,0,0,1,539,419.47Zm34,48.61q5.67,1.21,12.16,2,5.67.82,11.95,1.42t12.76.61A92.14,92.14,0,0,0,632,388.48a55.43,55.43,0,0,0,19.24-8.7,44.71,44.71,0,0,0,13.57-15.6q5.06-9.51,5.06-23.29A45.15,45.15,0,0,0,664,318.61a103.16,103.16,0,0,0-15-20.25,252.63,252.63,0,0,0-19.44-18.63q-10.34-8.91-19.44-18a110.47,110.47,0,0,1-15-18.23,34.25,34.25,0,0,1-5.87-18.83q0-14.58,9.31-22.48t30-7.9c2.16,0,4.38.07,6.68.2s4.52.34,6.69.61a52,52,0,0,0,6.48.4V184.94a49,49,0,0,1-6.08-.4c-1.89-.27-4-.47-6.28-.61s-4.66-.2-7.09-.2q-21.87,0-36.05,9.92t-14.17,31a41,41,0,0,0,5.87,21.26,106.94,106.94,0,0,0,15,19.45q9.1,9.52,19.44,18.43t19.44,18a99.89,99.89,0,0,1,15,18.84,38.65,38.65,0,0,1,5.87,20.25q0,19.44-13.16,29.57t-36.25,10.13a142.38,142.38,0,0,1-25.12-2q-6.07-.81-11.75-2Z"/></svg>