<svg width="58" height="55" viewBox="0 0 58 55" fill="none" xmlns="http://www.w3.org/2000/svg">
<path d="M16.1004 34.1584H41.007C41.2036 34.1584 41.3627 34.3181 41.3627 34.5142V49.1023C41.3627 52.2461 38.8134 54.7954 35.6696 54.7954H21.4371C18.2933 54.7954 15.744 52.2461 15.744 49.1023V34.5142C15.744 34.3175 15.9031 34.1584 16.0997 34.1584H16.1004Z" fill="#C6C2C2"/>
<path d="M28.5545 0C1.83419 0 -6.80911 31.3124 5.49617 31.3124H51.6143C63.8862 31.3124 55.3368 0 28.5545 0ZM11.4752 26.3311C9.11682 26.3311 7.20559 24.4199 7.20559 22.0614C7.20559 19.703 9.11682 17.7918 11.4752 17.7918C13.8337 17.7918 15.7449 19.703 15.7449 22.0614C15.7449 24.4193 13.8331 26.3311 11.4752 26.3311ZM31.4005 27.0425C25.1116 27.0425 20.0144 21.9452 20.0144 15.6564C20.0144 9.36749 25.1117 4.27032 31.4005 4.27032C37.6894 4.27032 42.7866 9.36763 42.7866 15.6564C42.7866 21.9453 37.6893 27.0425 31.4005 27.0425Z" fill="#F44343"/>
</svg>
