<?xml version="1.0" standalone="no"?>
<!DOCTYPE svg PUBLIC "-//W3C//DTD SVG 20010904//EN"
 "http://www.w3.org/TR/2001/REC-SVG-20010904/DTD/svg10.dtd">
<svg version="1.0" xmlns="http://www.w3.org/2000/svg"
 width="162.000000pt" height="162.000000pt" viewBox="0 0 162.000000 162.000000"
 preserveAspectRatio="xMidYMid meet">
<metadata>
Created by potrace 1.11, written by Peter Selinger 2001-2013
</metadata>
<g transform="translate(0.000000,162.000000) scale(0.100000,-0.100000)"
fill="#000000" stroke="none">
<path d="M640 1519 c-69 -48 -173 -122 -231 -163 -94 -65 -110 -82 -134 -129
-30 -63 -37 -155 -15 -222 15 -49 61 -135 71 -135 6 0 437 704 447 731 7 19
-17 4 -138 -82z"/>
<path d="M856 1598 c4 -7 44 -67 89 -133 118 -175 286 -437 393 -615 93 -154
122 -224 125 -300 2 -55 17 -35 52 75 26 80 28 92 22 217 -7 185 -45 284 -149
387 -35 36 -520 381 -534 381 -3 0 -2 -6 2 -12z"/>
<path d="M141 1068 c-44 -99 -54 -155 -48 -292 5 -127 13 -169 53 -253 17 -38
78 -120 108 -145 37 -32 518 -369 522 -366 2 2 -57 95 -131 206 -132 199 -320
496 -404 639 -48 81 -70 145 -73 210 -1 23 -3 43 -4 43 -2 0 -12 -19 -23 -42z"/>
<path d="M1079 398 c-117 -194 -220 -364 -228 -378 l-16 -25 30 21 c306 211
436 304 461 331 51 53 72 165 49 254 -14 51 -63 149 -76 149 -4 0 -103 -159
-220 -352z"/>
</g>
</svg>
