<?xml version="1.0" encoding="UTF-8"?>
<svg width="23px" height="20px" viewBox="0 0 23 20" version="1.1" xmlns="http://www.w3.org/2000/svg" xmlns:xlink="http://www.w3.org/1999/xlink">
    <!-- Generator: Sketch 51 (57462) - http://www.bohemiancoding.com/sketch -->
    <title>About icon</title>
    <desc>Created with Sketch.</desc>
    <defs>
        <polygon id="path-1" points="0 0.000380952381 22.5608917 0.000380952381 22.5608917 19.5097326 0 19.5097326"></polygon>
    </defs>
    <g id="Designs" stroke="none" stroke-width="1" fill="none" fill-rule="evenodd">
        <g id="Accounts-Connected" transform="translate(-83.000000, -429.000000)">
            <g id="Side-Nav" transform="translate(0.000000, 292.000000)">
                <g id="About-icon" transform="translate(83.000000, 137.000000)">
                    <mask id="mask-2" fill="white">
                        <use xlink:href="#path-1"></use>
                    </mask>
                    <g id="Clip-2"></g>
                    <path d="M16.57035,9.02038095 C15.7385167,9.02038095 15.0312667,8.35942857 15.0312667,7.49085714 C15.0312667,6.6232381 15.6973083,5.96228571 16.57035,5.96228571 C17.4021833,5.96228571 18.1094333,6.6232381 18.1094333,7.49085714 C18.1094333,8.35942857 17.4021833,9.02038095 16.57035,9.02038095 M11.4969333,9.06133333 C10.6238917,9.06133333 9.95880833,8.35942857 9.95880833,7.5327619 C9.95880833,6.66514286 10.6651,6.0032381 11.4969333,6.0032381 C12.3287667,6.0032381 13.0360167,6.66514286 13.0360167,7.5327619 C13.0360167,8.40038095 12.3287667,9.06133333 11.4969333,9.06133333 M6.42351667,9.06133333 C5.550475,9.06133333 4.88539167,8.35942857 4.88539167,7.5327619 C4.88539167,6.66514286 5.59168333,6.0032381 6.42351667,6.0032381 C7.29655833,6.0032381 7.9626,6.66514286 7.9626,7.5327619 C7.9626,8.40038095 7.25535,9.06133333 6.42351667,9.06133333 M20.2350167,0.000380952381 L2.32664167,0.000380952381 C1.030975,0.000380952381 -0.032775,1.0232381 0.000766666667,2.31180952 L0.000766666667,13.1089524 C0.000766666667,14.3632381 1.030975,15.420381 2.32664167,15.420381 L2.824975,15.420381 L2.824975,19.1841905 C2.824975,19.4813333 3.22364167,19.6137143 3.422975,19.415619 L7.4106,15.420381 L20.2350167,15.420381 C21.4981,15.420381 22.5608917,14.3965714 22.5608917,13.1089524 L22.5608917,2.31180952 C22.5608917,1.05657143 21.5316417,0.000380952381 20.2350167,0.000380952381" id="Fill-1" fill="#5284FF" mask="url(#mask-2)"></path>
                </g>
            </g>
        </g>
    </g>
</svg>