<svg width="16" height="16" xmlns="http://www.w3.org/2000/svg"><path d="M13.385 14.609H2.615c-.676-.002-1.223-.536-1.224-1.195V6.957H14.61v6.457c-.002.66-.548 1.193-1.224 1.195M2.615 3.479h.98v.26c0 .433.328.784.734.784.406 0 .734-.35.734-.783v-.262h5.874v.262c0 .432.328.783.734.783.406 0 .734-.35.734-.783v-.262h.98c.676.002 1.222.585 1.224 1.307v.78H1.39v-.78c.002-.722.548-1.305 1.224-1.307M13.333 1.94h-.97V.727a.727.727 0 10-1.455 0V1.94H5.092V.727a.727.727 0 10-1.455 0V1.94h-.97A2.667 2.667 0 000 4.606v8.727A2.667 2.667 0 002.667 16h10.666A2.667 2.667 0 0016 13.334V4.606a2.667 2.667 0 00-2.667-2.667" fill="#5284FF" fill-rule="evenodd"/></svg>