<?xml version="1.0" encoding="UTF-8"?>
<svg width="57px" height="22px" viewBox="0 0 57 22" version="1.1" xmlns="http://www.w3.org/2000/svg" xmlns:xlink="http://www.w3.org/1999/xlink">
    <!-- Generator: Sketch 51 (57462) - http://www.bohemiancoding.com/sketch -->
    <title>ENS_TypeLogo_Nav</title>
    <desc>Created with Sketch.</desc>
    <defs></defs>
    <g id="Designs" stroke="none" stroke-width="1" fill="none" fill-rule="evenodd">
        <g id="V2---No-Accounts-Open" transform="translate(-125.000000, -32.000000)" fill="#808184" fill-rule="nonzero">
            <g id="Top-Nav" transform="translate(-33.000000, 0.000000)">
                <g id="ENS_TypeLogo_Nav" transform="translate(158.000000, 32.000000)">
                    <path d="M-2.12814879e-10,21.405 L-2.12814879e-10,0.465 C0.00496844791,0.41005112 0.0498742377,0.367283701 0.105,0.365 L13.41,0.365 C13.4707513,0.365 13.52,0.414248678 13.52,0.475 L13.52,3.14 C13.52,3.20075132 13.4707513,3.25 13.41,3.25 L3.21,3.25 L3.21,9.42 L11.885,9.42 C11.9457513,9.42 11.995,9.46924868 11.995,9.53 L11.995,12.165 C11.995,12.2257513 11.9457513,12.275 11.885,12.275 L3.21,12.275 L3.21,18.63 L13.41,18.63 C13.4707513,18.63 13.52,18.6792487 13.52,18.74 L13.52,21.405 C13.52,21.4657513 13.4707513,21.515 13.41,21.515 L0.105,21.515 C0.0462097101,21.512325 -6.0826826e-05,21.4638511 -2.12814879e-10,21.405 Z" id="Shape"></path>
                    <path d="M33.085,21.46 L23.35,6.635 L23.35,21.4 C23.35,21.4607513 23.3007513,21.51 23.24,21.51 L20.24,21.51 C20.1792487,21.51 20.13,21.4607513 20.13,21.4 L20.13,0.48 C20.13,0.419248678 20.1792487,0.37 20.24,0.37 L23.015,0.37 C23.0514295,0.370732013 23.0851327,0.389455984 23.105,0.42 L32.85,15.215 L32.85,0.48 C32.85,0.419248678 32.8992487,0.37 32.96,0.37 L35.96,0.37 C36.0207513,0.37 36.07,0.419248678 36.07,0.48 L36.07,21.4 C36.07,21.4607513 36.0207513,21.51 35.96,21.51 L33.175,21.51 C33.1385705,21.509268 33.1048673,21.490544 33.085,21.46 Z" id="Shape"></path>
                    <path d="M45.885,17.45 L45.885,18.45 C47.1704497,18.7290639 48.4798822,18.8831148 49.795,18.91 C51.0950026,18.8834856 52.3893803,18.7311074 53.66,18.455 L53.66,13.715 L42.77,9.91 C42.7286157,9.89385825 42.7010017,9.85440958 42.7,9.81 L42.7,1.105 C42.6959984,1.05910279 42.7255054,1.01694992 42.77,1.005 C45.0401217,0.370746051 47.383126,0.034590483 49.74,0.005 C52.1066142,0.0360994258 54.4593425,0.372203469 56.74,1.005 C56.7844946,1.01694992 56.8140016,1.05910279 56.81,1.105 L56.81,4.39 C56.81,4.45075132 56.7607513,4.5 56.7,4.5 L53.755,4.5 C53.6942487,4.5 53.645,4.45075132 53.645,4.39 L53.645,3.39 C52.3593553,3.11280243 51.0499426,2.96042832 49.735,2.935 C48.4352086,2.96058639 47.1409015,3.11128191 45.87,3.385 L45.885,7.865 L56.735,11.665 C56.7763843,11.6811418 56.8039983,11.7205904 56.805,11.765 L56.805,20.74 C56.8090016,20.7858972 56.7794946,20.8280501 56.735,20.84 C54.4648549,21.4741428 52.1218652,21.8102963 49.765,21.84 C47.3984031,21.8086784 45.0457031,21.4725784 42.765,20.84 C42.7205054,20.8280501 42.6909984,20.7858972 42.695,20.74 L42.695,17.45 C42.695,17.3892487 42.7442487,17.34 42.805,17.34 L45.745,17.34 C45.7788871,17.3303662 45.8153384,17.3375465 45.8430403,17.3593123 C45.8707422,17.3810781 45.8863428,17.4147957 45.885,17.45 Z" id="Shape"></path>
                </g>
            </g>
        </g>
    </g>
</svg>