<svg width="19" height="17" xmlns="http://www.w3.org/2000/svg"><path d="M9.246 5.03c.5-.123 1.02.123 1.229.596.062.164.104.328.104.513-.02.513-.062 1.047-.104 1.56-.042.801-.104 1.622-.146 2.423-.02.267-.02.287-.02.554a.782.782 0 01-.792.76c-.438 0-.771-.308-.792-.74-.063-1.252-.146-2.299-.209-3.551l-.062-1.006c-.021-.513.292-.965.792-1.109m.27 9.445a1.06 1.06 0 01-1.062-1.047c0-.575.48-1.048 1.063-1.048s1.062.473 1.041 1.068c.021.554-.479 1.027-1.041 1.027M2.849 17h13.293c2.188 0 3.563-2.361 2.48-4.209L11.954 1.417c-1.083-1.89-3.834-1.89-4.917 0L.369 12.79C-.693 14.66.661 17 2.85 17" fill="#FFF" fill-rule="evenodd"/></svg>