<svg width="9" height="11" xmlns="http://www.w3.org/2000/svg">
  <path d="M3.1875 9.6h2.625c0 .7732-.5876 1.4-1.3125 1.4s-1.3125-.6268-1.3125-1.4zm.4688-8.2866C2.2005 1.7128 1.125 3.1218 1.125 4.7998v2.3998c0 .2212-.1684.4004-.3746.4004C.336 7.6 0 7.959 0 8.4v.6006C0 9.1108.0834 9.2.188 9.2h8.624c.1038 0 .188-.0906.188-.1994V8.4c0-.4418-.3375-.8-.7504-.8-.2068 0-.3746-.1778-.3746-.4004V4.7998c0-1.6774-1.0753-3.0868-2.5313-3.4864V.9002C5.3438.4018 4.966 0 4.5 0c-.465 0-.8438.403-.8438.9002v.4132z" fill="#282929" fill-rule="evenodd"/>
</svg>