<svg width="30" height="12" xmlns="http://www.w3.org/2000/svg">
  <path d="M12.439 10.9412c0-.5845-.4917-1.0588-1.0975-1.0588h-5.122c-2.223 0-4.0244-1.738-4.0244-3.8824 0-2.1445 1.8015-3.8824 4.0244-3.8824h5.8537C14.2946 2.1205 16.0946 3.857 16.0976 6v.7059c0 .5845.4917 1.0588 1.0975 1.0588.6059 0 1.0976-.4743 1.0976-1.0588V6c-.0044-3.312-2.7864-5.9958-6.2195-6H6.2195C2.785 0 0 2.6866 0 6s2.7849 6 6.2195 6h5.122c.6058 0 1.0975-.4744 1.0975-1.0588M23.7805 12h-5.8537c-3.4331-.0042-6.215-2.688-6.2195-6v-.7059c0-.5845.4917-1.0588 1.0976-1.0588.6058 0 1.0975.4743 1.0975 1.0588V6c.003 2.143 1.803 3.8795 4.0244 3.8824h5.8537c2.223 0 4.0244-1.738 4.0244-3.8824 0-2.1445-1.8015-3.8824-4.0244-3.8824h-5.122c-.6058 0-1.0975-.4743-1.0975-1.0588C17.561.4744 18.0527 0 18.6585 0h5.122C27.215 0 30 2.6866 30 6s-2.7849 6-6.2195 6" fill="#282929" fill-rule="evenodd"/>
</svg>