<svg width="42" height="43" xmlns="http://www.w3.org/2000/svg"><g fill="none" fill-rule="evenodd"><path d="M22.377 4.594l5.907 5.784h-5.916l.01-5.784zM33 41.644v-5.576h-2.771v4.219H2.77V2.682h16.826v9.044c0 .749.62 1.356 1.385 1.356h9.238v4.703h2.77v-6.073c.002-.359-.143-.704-.401-.959L21.966.39a1.399 1.399 0 0 0-.84-.389H1.386C.62 0 0 .607 0 1.357v40.286C0 42.393.62 43 1.386 43h30.228C32.38 43 33 42.393 33 41.643z" fill="#DFDFDF"/><rect fill="#D8D8D8" x="7" y="34" width="12" height="2.5" rx="1.25"/><rect fill="#D8D8D8" x="7" y="28" width="12" height="2.5" rx="1.25"/><rect fill="#D8D8D8" x="7" y="22" width="15" height="2.5" rx="1.25"/><path d="M27.685 33.955l-2.68.158.54-2.665 11.107-10.105 2.117 2.516-11.084 10.096zm10.101-15.48a1.306 1.306 0 0 0-1.89-.13l-12.46 11.312a1.404 1.404 0 0 0-.446.76l-.96 4.903c-.154.752.31 1.491 1.033 1.65.092.02.186.03.28.03h.093l4.884-.288c.298-.017.583-.138.808-.343l12.416-11.313a1.431 1.431 0 0 0 .125-1.963l-3.883-4.619z" fill="#DFDFDF"/></g></svg>