<svg xmlns="http://www.w3.org/2000/svg" width="68" height="68" viewBox="0 0 68 68">
  <g id="Group_1" data-name="Group 1" transform="translate(-1110.5 -418.5)">
    <rect id="Rectangle_1" data-name="Rectangle 1" width="68" height="68" transform="translate(1110.5 418.5)" fill="none"/>
    <g id="Mail_Icon" data-name="Mail Icon" transform="translate(1114.5 429.5)">
      <path id="Fill_1" data-name="Fill 1" d="M49.7,1.321A4.793,4.793,0,0,0,46.3,0H4.7A4.792,4.792,0,0,0,1.3,1.321,4.764,4.764,0,0,0,0,4.7V7.382a2.013,2.013,0,1,0,4.026.057V4.7c0-.395.079-.5.125-.545s.145-.126.546-.126H46.3c.4,0,.5.079.545.126s.126.15.126.545V9.37s0,0,0,0,0,.014,0,.021V28.855c0,.395-.08.478-.126.524s-.145.147-.545.147H44.961a2.013,2.013,0,1,0-.057,4.026h1.4a4.491,4.491,0,0,0,4.7-4.7V4.7a4.766,4.766,0,0,0-1.3-3.376" transform="translate(9 0)" fill="#dfdfdf"/>
      <path id="Fill_4" data-name="Fill 4" d="M46.3,34H4.7a4.761,4.761,0,0,1-3.4-1.339A4.887,4.887,0,0,1,0,29.24V4.76A4.887,4.887,0,0,1,1.3,1.339,4.761,4.761,0,0,1,4.7,0H46.3a4.761,4.761,0,0,1,3.4,1.339A4.884,4.884,0,0,1,51,4.76V29.24a4.884,4.884,0,0,1-1.3,3.421A4.761,4.761,0,0,1,46.3,34ZM4.026,5.8V29.24c0,.4.079.482.126.531s.146.149.545.149H46.3c.4,0,.5-.1.545-.148s.126-.126.126-.531V5.8L28.73,19.975a5.271,5.271,0,0,1-6.459,0ZM25.5,17c.147,0,.246.005.311.008l.086,0c.073,0,.089-.015.157-.079a3.032,3.032,0,0,1,.244-.209L42.57,4.08H8.43L24.7,16.724a3.029,3.029,0,0,1,.244.209c.068.064.084.079.156.079l.085,0C25.254,17.005,25.353,17,25.5,17Z" transform="translate(0 11)" fill="#dfdfdf"/>
    </g>
  </g>
</svg>
