<svg width="90" height="81" xmlns="http://www.w3.org/2000/svg"><g fill="#FFF" fill-rule="evenodd"><path d="M58.497 71.58v5.59H3.651V3.484h54.846V44.8l3.651-3.531V1.766C62.148.79 61.33 0 60.323 0H1.777C.787.026 0 .809 0 1.766v77.217c0 .975.818 1.766 1.825 1.766h58.498c1.007 0 1.825-.791 1.825-1.766V68.048l-3.65 3.531z"/><path d="M50.727 59.02l-.34 5.032 5.252-.326 29.864-28.625-4.852-4.648-29.924 28.566zm-2.293 8.634c-1.004.003-1.82-.776-1.823-1.74 0-.039.001-.08.004-.12l.51-7.658c.018-.438.209-.853.533-1.162l31.647-30.275c.71-.68 1.86-.68 2.571 0l7.484 7.17c.71.681.71 1.783 0 2.464L57.726 66.655c-.323.31-.756.493-1.213.511l-7.994.488h-.085zM50.431 20.733H23.924c-.954 0-1.728-.733-1.728-1.637s.774-1.637 1.728-1.637h26.507c.954 0 1.729.733 1.729 1.637s-.775 1.637-1.729 1.637M50.431 37.1H23.924c-.954 0-1.728-.732-1.728-1.636 0-.904.774-1.637 1.728-1.637h26.507c.954 0 1.729.733 1.729 1.637s-.775 1.637-1.729 1.637M40.3 54.56H24.067c-1.033 0-1.872-.733-1.872-1.637 0-.903.839-1.637 1.872-1.637H40.3c1.034 0 1.873.734 1.873 1.637 0 .904-.84 1.637-1.873 1.637M13.71 20.733a1.808 1.808 0 0 1-1.177-.495L9.248 17.1c-.597-.736-.456-1.796.315-2.366a1.834 1.834 0 0 1 2.122-.029l2.026 1.957 4.404-4.206a1.825 1.825 0 0 1 2.497.084 1.631 1.631 0 0 1 0 2.3l-5.641 5.387a1.804 1.804 0 0 1-1.26.506M13.71 37.1a1.808 1.808 0 0 1-1.177-.494l-3.285-3.138c-.597-.736-.456-1.796.315-2.366a1.834 1.834 0 0 1 2.122-.029l2.026 1.957 4.404-4.206a1.825 1.825 0 0 1 2.497.084 1.631 1.631 0 0 1 0 2.3l-5.641 5.387a1.804 1.804 0 0 1-1.26.506M13.71 54.56a1.808 1.808 0 0 1-1.177-.495l-3.285-3.137c-.597-.737-.456-1.796.315-2.366a1.834 1.834 0 0 1 2.122-.03l2.026 1.957 4.404-4.206a1.825 1.825 0 0 1 2.497.084 1.631 1.631 0 0 1 0 2.3l-5.641 5.387a1.804 1.804 0 0 1-1.26.506"/></g></svg>
