<svg id="Layer_1" data-name="Layer 1" xmlns="http://www.w3.org/2000/svg" xmlns:xlink="http://www.w3.org/1999/xlink" viewBox="0 0 588.11 566.59"><defs><style>.cls-1{fill:#fff}</style><linearGradient id="linear-gradient" x1="299.89" y1="21.81" x2="161.25" y2="172.05" gradientUnits="userSpaceOnUse"><stop offset=".58" stop-color="#fff" stop-opacity=".7"/><stop offset=".66" stop-color="#fff" stop-opacity=".6"/><stop offset=".82" stop-color="#fff" stop-opacity=".35"/><stop offset=".91" stop-color="#fff" stop-opacity=".2"/></linearGradient><linearGradient id="linear-gradient-2" x1="302.42" y1="383.36" x2="441.05" y2="233.12" xlink:href="#linear-gradient"/></defs><path class="cls-1" d="M7.5 501.65v-68.5a.35.35 0 0 1 .35-.35h43.52a.35.35 0 0 1 .35.35v8.73a.35.35 0 0 1-.35.35H18v20.22h28.41a.35.35 0 0 1 .35.35v8.63a.35.35 0 0 1-.35.35H18v20.8h33.37a.35.35 0 0 1 .35.35v8.73a.35.35 0 0 1-.35.35H7.85a.35.35 0 0 1-.35-.36zM103.12 442.23v59.42a.35.35 0 0 1-.35.35H93a.35.35 0 0 1-.35-.35v-59.42H73.92a.35.35 0 0 1-.35-.35v-8.73a.35.35 0 0 1 .35-.35h47.9a.35.35 0 0 1 .35.35v8.73a.35.35 0 0 1-.35.35zM227.21 501.65v-68.5a.35.35 0 0 1 .35-.35h43.52a.35.35 0 0 1 .35.35v8.73a.35.35 0 0 1-.35.35h-33.37v20.22h28.42a.35.35 0 0 1 .35.35v8.63a.35.35 0 0 1-.35.35h-28.42v20.8h33.38a.35.35 0 0 1 .35.35v8.73a.35.35 0 0 1-.35.35h-43.53a.35.35 0 0 1-.35-.36zM185 501.69v-29.88h-28v29.88a.35.35 0 0 1-.35.35h-9.8a.35.35 0 0 1-.35-.35v-68.5a.35.35 0 0 1 .35-.35h9.8a.35.35 0 0 1 .35.35v29.2h28v-29.2a.35.35 0 0 1 .35-.35h9.8a.35.35 0 0 1 .35.35v68.5a.35.35 0 0 1-.35.35h-9.8a.35.35 0 0 1-.35-.35zM479.1 503.5a63.28 63.28 0 0 1-24.6-5.45.32.32 0 0 1-.18-.31v-64.55a.35.35 0 0 1 .35-.35h9.8a.35.35 0 0 1 .35.35V490s5.2 2.48 14.29 2.48 14.37-2.48 14.37-2.48v-56.81a.35.35 0 0 1 .35-.35h9.8a.35.35 0 0 1 .35.35v64.56a.32.32 0 0 1-.19.31 64 64 0 0 1-24.69 5.44zM585.11 501.69v-45.92l-15.84 33.53a.35.35 0 0 1-.32.2h-7.33a.35.35 0 0 1-.31-.2l-16.23-33.53v45.91a.35.35 0 0 1-.35.35h-9.8a.35.35 0 0 1-.35-.35v-68.5a.35.35 0 0 1 .35-.35h9.93a.35.35 0 0 1 .32.2l20.12 42.86L585 433a.35.35 0 0 1 .32-.2h9.92a.35.35 0 0 1 .35.35v68.5a.35.35 0 0 1-.35.35h-9.8a.35.35 0 0 1-.33-.31zM342.79 502h10.88a.35.35 0 0 0 .29-.54l-19.21-29.22h11.55a.33.33 0 0 0 .29-.15 36.88 36.88 0 0 0 5.59-19.06c0-10.21-5.19-18.81-6-20.07a.34.34 0 0 0-.29-.16h-44.6a.35.35 0 0 0-.35.35v68.5a.35.35 0 0 0 .35.35h9.8a.35.35 0 0 0 .35-.35v-59.39h27.45s3.1 3.7 3.1 10.88-2.79 10.79-2.79 10.79h-20.33a.35.35 0 0 0-.29.54l23.92 37.4a.35.35 0 0 0 .29.13zM427.06 492.61h-33.38v-20.8h28.42a.35.35 0 0 0 .35-.35v-8.63a.35.35 0 0 0-.35-.35h-28.42v-20.22h33.38a.35.35 0 0 0 .35-.35v-8.73a.35.35 0 0 0-.35-.35h-43.53a.35.35 0 0 0-.35.35v68.5a.35.35 0 0 0 .35.35h43.52a.35.35 0 0 0 .35-.35V493a.35.35 0 0 0-.34-.39zM73.65 582.67H67a.33.33 0 0 1-.28-.15l-19-29v28.81a.33.33 0 0 1-.33.33h-7.5a.33.33 0 0 1-.33-.33v-44.6a.33.33 0 0 1 .33-.33h6.69a.33.33 0 0 1 .28.15l19 28.93v-28.74a.33.33 0 0 1 .33-.33h7.43a.33.33 0 0 1 .33.33v44.6a.33.33 0 0 1-.3.33zM126.14 582.67h-7.92a.33.33 0 0 1-.31-.22l-2.91-8.58H98.71l-2.94 8.58a.33.33 0 0 1-.31.22h-7.92a.33.33 0 0 1-.31-.44l16.35-44.6a.33.33 0 0 1 .31-.22h5.9a.33.33 0 0 1 .31.22l16.35 44.6a.33.33 0 0 1-.31.44zm-25-15.9h11.45L107 550.25zM179.46 582.67H172a.33.33 0 0 1-.33-.33v-26.47l-8.83 18.67a.33.33 0 0 1-.3.19h-5.41a.33.33 0 0 1-.3-.19l-9.08-18.74v26.54a.33.33 0 0 1-.33.33H140a.33.33 0 0 1-.33-.33v-44.6a.33.33 0 0 1 .33-.33h7.28a.33.33 0 0 1 .3.19l12.24 26.08 12-26.08a.33.33 0 0 1 .3-.19h7.29a.33.33 0 0 1 .33.33v44.6a.33.33 0 0 1-.28.33zM227.48 582.67H198.7a.33.33 0 0 1-.33-.33v-44.6a.33.33 0 0 1 .33-.33h28.78a.33.33 0 0 1 .33.33v6.75a.33.33 0 0 1-.33.33h-21v11.36h17.89a.33.33 0 0 1 .33.33v6.69a.33.33 0 0 1-.33.33h-17.92v11.73h21a.33.33 0 0 1 .33.33v6.75a.33.33 0 0 1-.3.33zM348.48 582.67H319.7a.33.33 0 0 1-.33-.33v-44.6a.33.33 0 0 1 .33-.33h28.78a.33.33 0 0 1 .33.33v6.75a.33.33 0 0 1-.33.33h-21v11.36h17.89a.33.33 0 0 1 .33.33v6.69a.33.33 0 0 1-.33.33h-17.92v11.73h21a.33.33 0 0 1 .33.33v6.75a.33.33 0 0 1-.3.33zM431.41 582.67h-5.73a.33.33 0 0 1-.31-.23l-14.66-44.6a.33.33 0 0 1 .31-.43h7.72a.33.33 0 0 1 .31.23l9.49 30 9.49-30a.33.33 0 0 1 .31-.23h7.84a.33.33 0 0 1 .31.43l-14.78 44.6a.33.33 0 0 1-.3.23zM467.35 582.67h-7.43a.33.33 0 0 1-.33-.33v-44.6a.33.33 0 0 1 .33-.33h7.43a.33.33 0 0 1 .33.33v44.6a.33.33 0 0 1-.33.33zM561 582.67h-28.81a.33.33 0 0 1-.33-.33v-44.6a.33.33 0 0 1 .33-.33H561a.33.33 0 0 1 .33.33v6.75a.33.33 0 0 1-.33.33h-21v11.36h17.89a.33.33 0 0 1 .33.33v6.69a.33.33 0 0 1-.33.33h-17.94v11.73h21a.33.33 0 0 1 .33.33v6.75a.33.33 0 0 1-.28.33zM514.65 582.74h-25.57a.3.3 0 0 1-.3-.19c-.54-1.31-3.71-9.45-3.71-22.56s3.16-21.17 3.71-22.46a.3.3 0 0 1 .3-.18h25.57a.33.33 0 0 1 .33.33v6.9a.33.33 0 0 1-.33.33h-20.11A62.32 62.32 0 0 0 493 560a63.9 63.9 0 0 0 1.58 15.18h20.11a.33.33 0 0 1 .33.33v6.9a.33.33 0 0 1-.37.33zM402.74 582.74h-8.21a.33.33 0 0 1-.28-.15l-16.06-25.11a.33.33 0 0 1 .28-.51H390a11.46 11.46 0 0 0 1.54-6.21 10.82 10.82 0 0 0-1.72-6.26h-16.27v37.91a.33.33 0 0 1-.33.33h-7.42a.33.33 0 0 1-.33-.33v-44.77a.33.33 0 0 1 .33-.33h29.6l.09.13a27 27 0 0 1 4 13.27 26.59 26.59 0 0 1-3.73 13l-.08.13h-5.36zM284.91 584a59.57 59.57 0 0 1-15.62-2.3.31.31 0 0 1-.22-.31v-7.95a.33.33 0 0 1 .33-.33h7.66v2.48a31 31 0 0 0 15.6 0v-9.21l-23.37-8.19a.33.33 0 0 1-.22-.31V539a.31.31 0 0 1 .22-.31 58.8 58.8 0 0 1 15.55-2.3 59.52 59.52 0 0 1 15.61 2.3.31.31 0 0 1 .22.31v8a.33.33 0 0 1-.33.33h-7.66v-2.53a31 31 0 0 0-15.6 0v8.65l23.34 8.18a.33.33 0 0 1 .22.31v19.46a.31.31 0 0 1-.22.31 58.81 58.81 0 0 1-15.51 2.29z" transform="translate(-7.5 -17.41)"/><path d="M174 171.94c3.79 8.08 13.13 24 13.13 24l108-178.54L189.75 91c-8.24 6.16-12.35 11.17-15 16.49-14.35 28.93-4.49 56.36-.75 64.45z" transform="translate(-7.5 -17.41)" fill="url(#linear-gradient)"/><path class="cls-1" d="M136.2 224.26c2.78 35.06 20.58 66.59 45.66 84.68L295 387.76S224.3 285.83 164.61 184.4c-6.47-11-10.86-25.76-12-34.58a55.36 55.36 0 0 1 .13-16.59c-1.55 2.87-4.36 8.8-4.36 8.8-5.39 12.1-10.89 25.92-12.23 39.1-.89 9.29-1.46 20.36.05 43.13z" transform="translate(-7.5 -17.41)"/><path d="M428.26 233.23c-3.79-8.08-13.13-24-13.13-24l-108 178.54 105.39-73.59c8.24-6.16 12.35-11.17 15-16.49 14.39-28.94 4.48-56.37.74-64.46z" transform="translate(-7.5 -17.41)" fill="url(#linear-gradient-2)"/><path class="cls-1" d="M466.1 180.91c-2.78-35.06-20.58-66.59-45.66-84.68L307.3 17.41S378 119.34 437.69 220.78c6.47 11 10.86 25.76 12 34.58a55.36 55.36 0 0 1-.13 16.59c1.55-2.87 4.36-8.8 4.36-8.8 5.39-12.1 10.89-25.92 12.23-39.1.85-9.3 1.47-20.37-.05-43.14z" transform="translate(-7.5 -17.41)"/></svg>