<svg id="图层_1" data-name="图层 1" xmlns="http://www.w3.org/2000/svg" viewBox="0 0 807.87 595.28"><defs><style>.cls-1{fill:#fff;}</style></defs><title>sns0000</title><path class="cls-1" d="M28.05,288.16a164.89,164.89,0,0,0,23.26,5.56,183.18,183.18,0,0,0,23,4,222.93,222.93,0,0,0,26,1.52q23.25,0,23.26-17.19,0-6.57-7.08-13.4a215.62,215.62,0,0,0-18-15.17q-10.87-8.34-23.26-18.45a167.54,167.54,0,0,1-23.25-23.26,121.5,121.5,0,0,1-18-29.57Q27,165.83,27,144.58q0-23.75,8.6-42A84.42,84.42,0,0,1,59.4,72.29,106.91,106.91,0,0,1,95,53.83a147.62,147.62,0,0,1,43.73-6.32A234.86,234.86,0,0,1,163,48.78l21.74,2.27q11.11,1.52,21.74,3v94.54c-2.7-.33-5.74-.67-9.1-1-2.7-.34-5.74-.68-9.1-1a105.88,105.88,0,0,0-10.62-.51c-2,0-4.55.09-7.58.25a46.49,46.49,0,0,0-8.6,1.27,17.59,17.59,0,0,0-7.07,3.53,8.7,8.7,0,0,0-3,7.08q0,4.05,6.83,10.11t16.68,14.16q9.86,8.08,21.74,18.71a150.29,150.29,0,0,1,21.74,24.26,142,142,0,0,1,16.68,30.84q6.82,17.2,6.83,38.43a121,121,0,0,1-7.08,41.7,88.69,88.69,0,0,1-22,33.88q-14.93,14.4-38.17,22.75t-55.11,8.34a333.76,333.76,0,0,1-35.64-1.77q-16.44-1.77-29.07-4.3a245,245,0,0,1-26.8-6.06Zm42.47,60.67q7.08,1.51,15.17,2.53c4.72.68,9.68,1.26,14.91,1.77s10.53.76,15.93.76a114.78,114.78,0,0,0,27.55-3.29,69.22,69.22,0,0,0,24-10.87A55.72,55.72,0,0,0,185,320.27q6.32-11.88,6.32-29.07A56.34,56.34,0,0,0,184,263.39a129.09,129.09,0,0,0-18.7-25.28,318.55,318.55,0,0,0-24.27-23.25q-12.9-11.12-24.27-22.5a138.72,138.72,0,0,1-18.7-22.75,42.82,42.82,0,0,1-7.34-23.51q0-18.19,11.63-28.06t37.41-9.86c2.7,0,5.48.09,8.35.25s5.64.43,8.34.76a64.37,64.37,0,0,0,8.09.51V96.55a60.84,60.84,0,0,1-7.59-.5c-2.36-.33-5-.59-7.83-.76s-5.82-.25-8.85-.25q-27.3,0-45,12.38T77.6,146.1a51.18,51.18,0,0,0,7.33,26.54,133.28,133.28,0,0,0,18.71,24.27q11.37,11.88,24.26,23t24.27,22.5a124.56,124.56,0,0,1,18.71,23.51,48.28,48.28,0,0,1,7.33,25.28q0,24.27-16.43,36.9t-45.25,12.64a178.44,178.44,0,0,1-31.35-2.53q-7.58-1-14.66-2.52Z"/><path class="cls-1" d="M264.66,55.6h88.47l93,129.93V55.6H551.82V392.82h-89L370.32,263.39V392.82H264.66Zm60.16,296.77V118.8L491.66,352.37H504.8V96.05H491.66V329.62L324.82,96.05H311.68V352.37Z"/><path class="cls-1" d="M578.1,288.16a164.56,164.56,0,0,0,23.26,5.56,182.85,182.85,0,0,0,23,4,222.93,222.93,0,0,0,26,1.52q23.25,0,23.25-17.19,0-6.57-7.08-13.4a213.67,213.67,0,0,0-17.94-15.17q-10.87-8.34-23.26-18.45a168.15,168.15,0,0,1-23.26-23.26,121.16,121.16,0,0,1-17.94-29.57q-7.09-16.42-7.08-37.67,0-23.75,8.6-42a84.2,84.2,0,0,1,23.76-30.33,106.91,106.91,0,0,1,35.64-18.46,147.57,147.57,0,0,1,43.73-6.32,234.86,234.86,0,0,1,24.27,1.27l21.74,2.27q11.11,1.52,21.74,3v94.54q-4.07-.49-9.1-1-4.05-.51-9.11-1a105.83,105.83,0,0,0-10.61-.51c-2,0-4.55.09-7.58.25a46.36,46.36,0,0,0-8.6,1.27,17.69,17.69,0,0,0-7.08,3.53,8.72,8.72,0,0,0-3,7.08q0,4.05,6.82,10.11T725,182.5q9.85,8.08,21.74,18.71a151.24,151.24,0,0,1,21.74,24.26,142,142,0,0,1,16.68,30.84q6.82,17.2,6.83,38.43a121.24,121.24,0,0,1-7.08,41.7,88.92,88.92,0,0,1-22,33.88q-14.92,14.4-38.17,22.75t-55.11,8.34A333.62,333.62,0,0,1,634,399.64q-16.44-1.77-29.07-4.3a245,245,0,0,1-26.8-6.06Zm42.47,60.67q7.06,1.51,15.17,2.53c4.71.68,9.68,1.26,14.91,1.77s10.53.76,15.92.76a114.86,114.86,0,0,0,27.56-3.29,69.17,69.17,0,0,0,24-10.87,55.74,55.74,0,0,0,16.94-19.46q6.31-11.88,6.32-29.07a56.34,56.34,0,0,0-7.33-27.81,128.75,128.75,0,0,0-18.71-25.28,314.87,314.87,0,0,0-24.27-23.25q-12.89-11.12-24.26-22.5a138.3,138.3,0,0,1-18.71-22.75,42.81,42.81,0,0,1-7.33-23.51q0-18.19,11.63-28.06t37.41-9.86c2.7,0,5.48.09,8.34.25s5.64.43,8.35.76a64.33,64.33,0,0,0,8.08.51V96.55a60.56,60.56,0,0,1-7.58-.5c-2.36-.33-5-.59-7.84-.76s-5.81-.25-8.84-.25q-27.3,0-45,12.38T627.65,146.1A51.18,51.18,0,0,0,635,172.64a133.65,133.65,0,0,0,18.7,24.27q11.39,11.88,24.27,23t24.27,22.5a124.49,124.49,0,0,1,18.7,23.51,48.19,48.19,0,0,1,7.33,25.28q0,24.27-16.43,36.9t-45.25,12.64a178.32,178.32,0,0,1-31.34-2.53c-5.05-.67-10-1.51-14.66-2.52Z"/><path class="cls-1" d="M19.78,496.51l4.58-5.26A23.51,23.51,0,0,0,41,498.71c7.9,0,12.59-3.94,12.59-9.78,0-6.15-4.36-8.11-10.05-10.59l-8.64-3.82c-5.61-2.39-12.19-6.64-12.19-15.5,0-9.19,8-16,19-16a24.88,24.88,0,0,1,17.72,7.45l-4.06,4.92a19.25,19.25,0,0,0-13.66-5.64c-6.75,0-11.22,3.4-11.22,8.79,0,5.8,5.24,8,10,10L49,472.24c7,3,12.4,7.15,12.4,16.1,0,9.51-7.86,17.1-20.51,17.1A28.85,28.85,0,0,1,19.78,496.51Z"/><path class="cls-1" d="M69.07,482.11c0-14.88,9.73-23.45,20.66-23.45s20.66,8.57,20.66,23.45-9.73,23.33-20.66,23.33S69.07,496.87,69.07,482.11Zm33.53,0c0-10.22-5.2-17.17-12.87-17.17s-12.86,6.95-12.86,17.17,5.19,17.05,12.86,17.05S102.6,492.33,102.6,482.11Z"/><path class="cls-1" d="M118.81,482.11c0-14.88,10.05-23.45,21.45-23.45a18.7,18.7,0,0,1,13,5.23l-3.86,5c-2.59-2.35-5.34-3.94-8.84-3.94-8.08,0-14,6.95-14,17.17s5.6,17.05,13.79,17.05a16.07,16.07,0,0,0,10.47-4.44l3.27,5.06a21.65,21.65,0,0,1-14.41,5.66C127.85,505.44,118.81,496.87,118.81,482.11Z"/><path class="cls-1" d="M162.52,445.72c0-3,2.28-4.87,5.21-4.87s5.21,1.91,5.21,4.87a5.22,5.22,0,0,1-10.42,0Zm1.38,14h7.55v44.58H163.9Z"/><path class="cls-1" d="M183.73,492.77c0-9.71,8.38-14.57,27.38-16.64,0-5.73-1.92-11.26-9.2-11.26-5.16,0-9.8,2.45-13.3,4.78l-3-5.17c4.1-2.69,10.36-5.82,17.51-5.82,10.88,0,15.48,7.23,15.48,18.33v27.35h-6.23l-.63-5.33h-.26c-4.24,3.54-9.21,6.43-14.74,6.43C189.33,505.44,183.73,500.81,183.73,492.77Zm27.38.7V481.08c-14.94,1.8-20,5.46-20,11.16,0,5.06,3.44,7.13,7.81,7.13S206.79,497.27,211.11,493.47Z"/><path class="cls-1" d="M232.75,495.39V439h7.54v56.94c0,2.31,1,3.22,2.11,3.22a6.64,6.64,0,0,0,1.65-.18l1,5.76a12,12,0,0,1-4.34.7C235.08,505.44,232.75,501.84,232.75,495.39Z"/><path class="cls-1" d="M275.18,444.15h7.92L304.88,482l6.5,12.46h.37c-.39-6.07-1-12.85-1-19.15V444.15h7.28v60.19h-7.91l-21.79-37.87L281.85,454h-.37c.39,6.09,1,12.51,1,18.8v31.5h-7.28Z"/><path class="cls-1" d="M331,492.77c0-9.71,8.38-14.57,27.38-16.64,0-5.73-1.92-11.26-9.2-11.26-5.16,0-9.8,2.45-13.3,4.78l-3-5.17c4.1-2.69,10.36-5.82,17.51-5.82,10.88,0,15.49,7.23,15.49,18.33v27.35h-6.23l-.64-5.33h-.25c-4.25,3.54-9.21,6.43-14.75,6.43C336.63,505.44,331,500.81,331,492.77Zm27.38.7V481.08c-14.94,1.8-20,5.46-20,11.16,0,5.06,3.44,7.13,7.81,7.13S354.1,497.27,358.41,493.47Z"/><path class="cls-1" d="M380.05,459.76h6.23l.64,6.46h.25c3.9-4.21,8.57-7.56,13.88-7.56,6.81,0,10.47,3.26,12.31,8.5,4.63-5,9.28-8.5,14.7-8.5,9.16,0,13.57,6.06,13.57,17.43v28.25h-7.55V477.07c0-8.31-2.63-11.86-8.29-11.86-3.46,0-7.06,2.26-11.18,6.85v32.28h-7.54V477.07c0-8.31-2.63-11.86-8.3-11.86-3.34,0-7,2.26-11.17,6.85v32.28h-7.55Z"/><path class="cls-1" d="M452.75,482.11c0-14.51,9.78-23.45,20.05-23.45,11.37,0,17.79,8.17,17.79,20.92a24.54,24.54,0,0,1-.35,4.28h-30c.54,9.45,6.32,15.57,14.81,15.57a19.51,19.51,0,0,0,11.1-3.56l2.7,4.95a26.19,26.19,0,0,1-14.72,4.62C462.21,505.44,452.75,496.76,452.75,482.11Zm31.17-3.65c0-8.93-4-13.79-11-13.79-6.27,0-11.87,5-12.79,13.79Z"/><path class="cls-1" d="M516.21,496.51l4.58-5.26a23.49,23.49,0,0,0,16.61,7.46c7.9,0,12.58-3.94,12.58-9.78,0-6.15-4.36-8.11-10-10.59l-8.65-3.82c-5.61-2.39-12.19-6.64-12.19-15.5,0-9.19,8-16,18.95-16a24.89,24.89,0,0,1,17.73,7.45l-4.06,4.92a19.28,19.28,0,0,0-13.67-5.64c-6.75,0-11.22,3.4-11.22,8.79,0,5.8,5.25,8,10,10l8.57,3.71c7,3,12.41,7.15,12.41,16.1,0,9.51-7.86,17.1-20.52,17.1A28.83,28.83,0,0,1,516.21,496.51Z"/><path class="cls-1" d="M564.34,522.64l1.47-6a11.66,11.66,0,0,0,3.4.67c5,0,8.21-4,10-9.57l1-3.3-17.89-44.67h7.77l9.1,24.68c1.4,3.87,2.9,8.44,4.35,12.56H584c1.27-4.05,2.53-8.62,3.75-12.56l7.95-24.68h7.39L586.26,508c-3.15,8.84-7.75,15.54-16.69,15.54A14.41,14.41,0,0,1,564.34,522.64Z"/><path class="cls-1" d="M606.73,499.26l3.73-5c3.87,3.12,7.81,5.28,13.16,5.28,5.85,0,8.76-3.12,8.76-6.93,0-4.58-5.26-6.61-10.2-8.45-6.24-2.28-13.29-5.35-13.29-12.88,0-7.13,5.71-12.65,15.38-12.65a22.58,22.58,0,0,1,13.86,5l-3.61,4.83c-3.07-2.27-6.22-4-10.17-4-5.61,0-8.21,3-8.21,6.4,0,4.24,4.85,5.85,9.9,7.73,6.43,2.43,13.6,5,13.6,13.53,0,7.23-5.75,13.25-16.27,13.25A26.81,26.81,0,0,1,606.73,499.26Z"/><path class="cls-1" d="M649.61,490.56V465.91H643v-5.72l7-.43.91-12.5h6.3v12.5h12.08v6.15H657.15v24.78c0,5.45,1.76,8.61,6.9,8.61a14.91,14.91,0,0,0,5.08-1.2l1.45,5.69a26.85,26.85,0,0,1-8.27,1.65C652.82,505.44,649.61,499.43,649.61,490.56Z"/><path class="cls-1" d="M674.69,482.11c0-14.51,9.78-23.45,20-23.45,11.37,0,17.79,8.17,17.79,20.92a24.54,24.54,0,0,1-.35,4.28h-30c.54,9.45,6.32,15.57,14.82,15.57a19.5,19.5,0,0,0,11.09-3.56l2.7,4.95A26.19,26.19,0,0,1,696,505.44C684.16,505.44,674.69,496.76,674.69,482.11Zm31.17-3.65c0-8.93-4-13.79-11-13.79-6.27,0-11.87,5-12.79,13.79Z"/><path class="cls-1" d="M723.46,459.76h6.24l.63,6.46h.25c3.91-4.21,8.57-7.56,13.88-7.56,6.82,0,10.47,3.26,12.31,8.5,4.63-5,9.28-8.5,14.7-8.5,9.16,0,13.57,6.06,13.57,17.43v28.25h-7.55V477.07c0-8.31-2.62-11.86-8.29-11.86-3.46,0-7.05,2.26-11.18,6.85v32.28h-7.54V477.07c0-8.31-2.63-11.86-8.3-11.86-3.34,0-7,2.26-11.17,6.85v32.28h-7.55Z"/></svg>