<svg id="图层_1" data-name="图层 1" xmlns="http://www.w3.org/2000/svg" viewBox="0 0 807.87 595.28"><defs><style>.cls-1{fill:#fff;}</style></defs><title>logo1020005</title><path class="cls-1" d="M191.86,274.83v-5.69h20.73V259.6H190.91v-5.77q9.54-2.81,14.13-8.62t4.6-15.8A21.79,21.79,0,0,0,201,211.47q-8.62-6.83-23.46-6.83t-23.37,6.83a21.85,21.85,0,0,0-8.53,17.94q0,19.08,18.47,24.51v5.68H143.39v9.54h21.69v5.78q-9.54,2.81-14.14,8.62t-4.59,15.8A21.77,21.77,0,0,0,155,317.28q8.63,6.83,23.45,6.83t23.37-6.83a21.86,21.86,0,0,0,8.54-17.94Q210.33,280.26,191.86,274.83Zm1.75,35.36q-5.78,4.11-15.14,4.11T163.28,310q-5.82-4.27-5.82-10.67,0-8,4.47-11.64,4.17-3.43,12.78-5.41V246.6Q165.65,245,161.15,241t-4.55-11.2a13,13,0,0,1,5.78-11.2q5.77-4.11,15.14-4.12t15.18,4.29q5.82,4.29,5.82,10.68,0,8-4.46,11.64c-2.8,2.31-7.12,4.12-12.92,5.44v35.63q9.18,1.59,13.69,5.66T199.39,299A13,13,0,0,1,193.61,310.19Z"/><path class="cls-1" d="M109.19,206.64c9.38,0,16.85,2.15,22.21,6.4a19.7,19.7,0,0,1,7.86,16.37c0,6.16-1.4,11.06-4.16,14.56s-7.2,6.2-13.13,7.94l-1.44.42v9.27h21.69v5.54H121.49v9.19l1.43.42c11.46,3.37,17,10.76,17,22.59a19.79,19.79,0,0,1-7.78,16.38c-5.3,4.24-12.74,6.39-22.12,6.39S93.2,320,87.84,315.71A19.7,19.7,0,0,1,80,299.34c0-6.16,1.4-11.06,4.16-14.56s7.2-6.2,13.13-7.94l1.43-.42v-9.28H77V261.6H97.75v-9.18L96.32,252c-11.46-3.37-17-10.76-17-22.59A19.79,19.79,0,0,1,87.07,213c5.3-4.24,12.74-6.39,22.12-6.39m-4.85,41.61v32.47c-5.33,1.36-9.28,3.15-12.06,5.43-3.44,2.84-5.19,7.28-5.19,13.19,0,4.91,2.23,9,6.63,12.28,4.22,3.11,9.73,4.68,16.38,4.68s12.12-1.51,16.3-4.48A15,15,0,0,0,133,299c0-5.3-1.75-9.57-5.21-12.69-3-2.7-7.37-4.67-13-5.84V248.07c5.4-1.38,9.4-3.17,12.2-5.48,3.44-2.83,5.19-7.27,5.19-13.18,0-4.91-2.23-9-6.64-12.29-4.21-3.1-9.72-4.68-16.37-4.68S97,214,92.84,216.93a15,15,0,0,0-6.61,12.83c0,5.29,1.75,9.56,5.21,12.69,3,2.68,7.3,4.63,12.9,5.8m4.85-43.61q-14.84,0-23.37,6.83a21.85,21.85,0,0,0-8.53,17.94q0,19.08,18.46,24.51v5.68H75v9.54H96.7v5.78q-9.53,2.81-14.13,8.62T78,299.34a21.77,21.77,0,0,0,8.62,17.94q8.61,6.83,23.45,6.83t23.37-6.83A21.85,21.85,0,0,0,142,299.34q0-19.08-18.46-24.51v-5.69h20.73V259.6H122.53v-5.77q9.54-2.81,14.14-8.62t4.59-15.8a21.77,21.77,0,0,0-8.62-17.94q-8.61-6.83-23.45-6.83Zm.91,109.66q-9.37,0-15.19-4.29t-5.82-10.67q0-8,4.46-11.64c2.78-2.29,7.06-4.09,12.79-5.41V246.6Q97.27,245,92.78,241t-4.55-11.2A13,13,0,0,1,94,218.56q5.77-4.11,15.14-4.12t15.19,4.29q5.82,4.29,5.82,10.68,0,8-4.47,11.64c-2.8,2.31-7.12,4.12-12.92,5.44v35.63q9.18,1.59,13.7,5.66T131,299a13,13,0,0,1-5.77,11.2q-5.77,4.11-15.14,4.11Z"/><path class="cls-1" d="M268.91,231.45v59.27H292.6v16.73H249.15v-76Z"/><path class="cls-1" d="M322.54,231.45v76H302.78v-76Z"/><path class="cls-1" d="M338.47,307.45v-76h19.75l36.49,46.47V231.45h19.66v76H394.71L358.22,261v46.47Z"/><path class="cls-1" d="M450.05,262.79l24.1-31.34h24.39l-30.14,36,33,40h-25.6l-25.71-33v33H430.3v-76h19.75Z"/><path class="cls-1" d="M529.89,262.79,554,231.45h24.4l-30.14,36,33,40H555.6l-25.71-33v33H510.13v-76h19.76Z"/><path class="cls-1" d="M633.21,248.18H609.73v12.7H631.9v16.73H609.73v13.11h23.48v16.73H590v-76h43.24Z"/><path class="cls-1" d="M665.77,271l-27.72-39.51h23.59l14.11,20.76,14-20.76h23.59L685.53,271v36.49H665.77Z"/></svg>