<svg width="90" height="90" xmlns="http://www.w3.org/2000/svg"><defs><linearGradient x1="73.003%" y1="-33.718%" x2="73.003%" y2="100%" id="a"><stop stop-color="#52E0FF" offset="0%"/><stop stop-color="#5040FF" offset="100%"/></linearGradient></defs><g transform="translate(-166 -1462)" fill="url(#a)" fill-rule="evenodd"><path d="M195.833 1505.765a2.197 2.197 0 0 0-1.774-.66 2.194 2.194 0 0 0-1.322 3.758l16.385 16.385a2.194 2.194 0 1 0 3.315-2.878 2.055 2.055 0 0 0-.219-.22l-16.385-16.385z"/><path d="M227.492 1498.73a5.787 5.787 0 0 1-8.238 0 5.773 5.773 0 0 1-1.213-6.454c1.544 1.692 1.745 1.816 2.577 2.647 2.497 1.98 5.173 3 7.174 3.477a5.607 5.607 0 0 1-.3.33m25.225-33.463c-2.032-2.032-4.741-3.066-7.637-3.247-.482-.031-.981-.023-1.473 0-.493.022-.978.061-1.473.12-2.105.332-3.959.906-7.745 3.825-1.031.811-1.322 2.008-.67 3.03a2.194 2.194 0 0 0 3.346.427c3.244-2.5 3.868-2.516 5.61-2.952 2.998-.363 5.37.319 6.945 1.894 1.794 1.795 2.407 4.651 1.653 8.207-.752 3.556-2.927 7.618-6.403 11.096-3.477 3.476-7.539 5.68-11.095 6.433-3.556.753-9.167-1.267-10.962-3.06-.474-.474-1.249-1.215-1.6-1.846a5.783 5.783 0 0 1 6.279 1.299c.235.234.446.491.63.75a2.2 2.2 0 1 0 3.579-2.554 10.233 10.233 0 0 0-1.113-1.294 10.16 10.16 0 0 0-7.216-2.976c-2.62 0-5.258.99-7.245 2.976-3.973 3.974-3.973 10.49 0 14.462 3.973 3.973 10.489 3.973 14.46 0a10.115 10.115 0 0 0 2.136-3.157 18.181 18.181 0 0 0 1.954-.3c2.078-.441 4.191-1.24 6.254-2.346v11.937l-38.725 38.723-30.907-30.966 38.695-38.695h19.752l9.681 9.65a2.196 2.196 0 1 0 3.098-3.095l-10.283-10.283a2.193 2.193 0 0 0-1.563-.661H209.09a2.193 2.193 0 0 0-1.563.661l-40.89 40.889a2.198 2.198 0 0 0 0 3.097l34.036 34.034c.856.852 2.239.852 3.096 0l40.89-40.889c.42-.411.66-.975.66-1.563v-15.755a31.716 31.716 0 0 0 2.646-2.345c4.023-4.023 6.643-8.735 7.607-13.29.964-4.554.227-9.153-2.856-12.236"/></g></svg>