<svg width="94" height="81" xmlns="http://www.w3.org/2000/svg"><defs><linearGradient x1="74.368%" y1="204.871%" x2="50%" y2="-95.175%" id="a"><stop stop-color="#52DDFF" offset="0%"/><stop stop-color="#5149FF" offset="100%"/></linearGradient><linearGradient x1="100%" y1="168.934%" x2="0%" y2="-40.361%" id="b"><stop stop-color="#51D0FF" offset="0%"/><stop stop-color="#504EFF" offset="100%"/></linearGradient></defs><g transform="translate(-409 -1473)" fill="url(#a)" stroke="url(#b)" stroke-width="1.134" fill-rule="evenodd"><path d="M445.71 1495.56h19.369v-18.497H445.71v18.497zm-1.513 3.063h9.836v16.074h3.026v-16.074h9.533c.835 0 1.513-.686 1.513-1.531v-21.56c0-.846-.678-1.532-1.513-1.532h-22.395c-.836 0-1.513.686-1.513 1.532v21.56c0 .845.677 1.531 1.513 1.531zM445.71 1549.977h19.369v-18.253H445.71v18.253zm20.882-21.275h-9.684v-5.626h-3.026v5.626h-9.685c-.836 0-1.513.677-1.513 1.51v21.277c0 .834.677 1.511 1.513 1.511h22.395c.835 0 1.513-.677 1.513-1.511v-21.276c0-.834-.678-1.511-1.513-1.511z"/><path d="M479.23 1549.998h19.693v-18.127h-19.692v18.127zm-66.153 0h19.692v-18.127h-19.692v18.127zm87.385-21.128h-9.847v-9.081c0-.829-.689-1.501-1.538-1.501h-66.77c-.85 0-1.538.672-1.538 1.5v9.082h-9.23c-.851 0-1.539.672-1.539 1.5v21.13c0 .828.688 1.5 1.538 1.5h22.77c.849 0 1.538-.672 1.538-1.5v-21.13c0-.828-.69-1.5-1.538-1.5h-10.462v-7.58h63.692v7.58h-9.846c-.85 0-1.538.672-1.538 1.5v21.13c0 .828.688 1.5 1.538 1.5h22.77c.849 0 1.538-.672 1.538-1.5v-21.13c0-.828-.69-1.5-1.538-1.5z"/></g></svg>